<svg width="144" height="30" viewBox="0 0 144 30" fill="none" xmlns="http://www.w3.org/2000/svg">
    <path d="M42.762 24C41.6711 24 40.6845 23.7594 39.8021 23.2781C38.9358 22.7807 38.246 22.0508 37.7326 21.0882C37.2353 20.1257 36.9866 18.9225 36.9866 17.4786C36.9866 16.0348 37.2433 14.8315 37.7567 13.869C38.2861 12.9064 38.984 12.1845 39.8503 11.7032C40.7326 11.2219 41.7032 10.9813 42.762 10.9813C44.0134 10.9813 45.1203 11.254 46.0829 11.7995C47.0455 12.3449 47.8075 13.107 48.369 14.0856C48.9305 15.0481 49.2112 16.1791 49.2112 17.4786C49.2112 18.7781 48.9305 19.9171 48.369 20.8957C47.8075 21.8743 47.0455 22.6364 46.0829 23.1818C45.1203 23.7273 44.0134 24 42.762 24ZM36 23.8556V6H38.3102V14.4946L38.0695 17.4545L38.2139 20.4144V23.8556H36ZM42.5695 21.9786C43.3877 21.9786 44.1176 21.7941 44.7594 21.4251C45.4171 21.0561 45.9305 20.5348 46.2995 19.861C46.6845 19.1711 46.877 18.377 46.877 17.4786C46.877 16.5642 46.6845 15.7781 46.2995 15.1203C45.9305 14.4465 45.4171 13.9251 44.7594 13.5561C44.1176 13.1872 43.3877 13.0027 42.5695 13.0027C41.7674 13.0027 41.0374 13.1872 40.3797 13.5561C39.738 13.9251 39.2246 14.4465 38.8396 15.1203C38.4706 15.7781 38.2861 16.5642 38.2861 17.4786C38.2861 18.377 38.4706 19.1711 38.8396 19.861C39.2246 20.5348 39.738 21.0561 40.3797 21.4251C41.0374 21.7941 41.7674 21.9786 42.5695 21.9786Z" fill="black"/>
    <path d="M52.4031 23.8556V6H54.7133V23.8556H52.4031Z" fill="black"/>
    <path d="M67.0413 23.8556V21.1604L66.9209 20.6551V16.0588C66.9209 15.0802 66.6322 14.3262 66.0546 13.7968C65.4931 13.2513 64.6429 12.9786 63.5038 12.9786C62.7498 12.9786 62.0119 13.107 61.2899 13.3636C60.568 13.6043 59.9584 13.9332 59.4611 14.3503L58.4985 12.6176C59.1562 12.0882 59.9423 11.6872 60.8568 11.4144C61.7873 11.1257 62.7579 10.9813 63.7685 10.9813C65.5172 10.9813 66.8648 11.4064 67.8113 12.2567C68.7578 13.107 69.2311 14.4064 69.2311 16.1551V23.8556H67.0413ZM62.8541 24C61.9076 24 61.0734 23.8396 60.3514 23.5187C59.6455 23.1979 59.1001 22.7567 58.7151 22.1952C58.33 21.6176 58.1375 20.9679 58.1375 20.246C58.1375 19.5561 58.298 18.9305 58.6188 18.369C58.9557 17.8075 59.4931 17.3583 60.2311 17.0214C60.9851 16.6845 61.9958 16.516 63.2632 16.516H67.306V18.1765H63.3594C62.2044 18.1765 61.4263 18.369 61.0252 18.754C60.6242 19.139 60.4236 19.6043 60.4236 20.1497C60.4236 20.7754 60.6723 21.2807 61.1696 21.6658C61.6669 22.0348 62.3568 22.2192 63.2391 22.2192C64.1054 22.2192 64.8595 22.0267 65.5012 21.6417C66.1589 21.2567 66.6322 20.6952 66.9209 19.9572L67.3782 21.5455C67.0734 22.2995 66.5359 22.9011 65.7659 23.3503C64.9958 23.7834 64.0252 24 62.8541 24Z" fill="black"/>
    <path d="M79.0651 24C77.7656 24 76.6025 23.7192 75.5758 23.1578C74.5651 22.5963 73.771 21.8262 73.1934 20.8476C72.6159 19.869 72.3271 18.746 72.3271 17.4786C72.3271 16.2112 72.6159 15.0882 73.1934 14.1096C73.771 13.131 74.5651 12.369 75.5758 11.8235C76.6025 11.262 77.7656 10.9813 79.0651 10.9813C80.2202 10.9813 81.2469 11.2139 82.1453 11.6791C83.0597 12.1283 83.7656 12.8021 84.2629 13.7005L82.5063 14.8315C82.0891 14.2059 81.5758 13.7487 80.9661 13.4599C80.3726 13.1551 79.7309 13.0027 79.041 13.0027C78.2068 13.0027 77.4608 13.1872 76.8031 13.5561C76.1453 13.9251 75.6239 14.4465 75.2389 15.1203C74.8538 15.7781 74.6613 16.5642 74.6613 17.4786C74.6613 18.393 74.8538 19.1872 75.2389 19.861C75.6239 20.5348 76.1453 21.0561 76.8031 21.4251C77.4608 21.7941 78.2068 21.9786 79.041 21.9786C79.7309 21.9786 80.3726 21.8342 80.9661 21.5455C81.5758 21.2406 82.0891 20.7754 82.5063 20.1497L84.2629 21.2567C83.7656 22.139 83.0597 22.8209 82.1453 23.3021C81.2469 23.7674 80.2202 24 79.0651 24Z" fill="black"/>
    <path d="M88.9664 20.7754L89.0145 17.8155L96.354 11.1016H99.1455L93.5145 16.6364L92.2631 17.6952L88.9664 20.7754ZM87.0893 23.8556V6H89.3995V23.8556H87.0893ZM96.8353 23.8556L91.83 17.6471L93.322 15.7941L99.6749 23.8556H96.8353Z" fill="black"/>
    <path d="M113.073 24C111.789 24 110.65 23.7192 109.656 23.1578C108.661 22.5963 107.875 21.8262 107.297 20.8476C106.72 19.8529 106.431 18.7299 106.431 17.4786C106.431 16.2112 106.72 15.0882 107.297 14.1096C107.875 13.131 108.661 12.369 109.656 11.8235C110.65 11.262 111.789 10.9813 113.073 10.9813C114.34 10.9813 115.471 11.262 116.466 11.8235C117.476 12.369 118.262 13.131 118.824 14.1096C119.402 15.0722 119.69 16.1952 119.69 17.4786C119.69 18.746 119.402 19.869 118.824 20.8476C118.262 21.8262 117.476 22.5963 116.466 23.1578C115.471 23.7192 114.34 24 113.073 24ZM113.073 21.9786C113.891 21.9786 114.621 21.7941 115.262 21.4251C115.92 21.0561 116.434 20.5348 116.803 19.861C117.172 19.1711 117.356 18.377 117.356 17.4786C117.356 16.5642 117.172 15.7781 116.803 15.1203C116.434 14.4465 115.92 13.9251 115.262 13.5561C114.621 13.1872 113.891 13.0027 113.073 13.0027C112.254 13.0027 111.525 13.1872 110.883 13.5561C110.241 13.9251 109.728 14.4465 109.343 15.1203C108.958 15.7781 108.765 16.5642 108.765 17.4786C108.765 18.377 108.958 19.1711 109.343 19.861C109.728 20.5348 110.241 21.0561 110.883 21.4251C111.525 21.7941 112.254 21.9786 113.073 21.9786Z" fill="black"/>
    <path d="M122.885 23.8556V11.1016H125.099V14.5668L124.883 13.7005C125.235 12.8182 125.829 12.1444 126.663 11.6791C127.497 11.2139 128.524 10.9813 129.743 10.9813V13.2193C129.647 13.2032 129.551 13.1952 129.455 13.1952C129.374 13.1952 129.294 13.1952 129.214 13.1952C127.979 13.1952 127 13.5642 126.278 14.3021C125.556 15.0401 125.195 16.1069 125.195 17.5027V23.8556H122.885Z" fill="black"/>
    <path d="M138.152 24C136.789 24 135.586 23.7192 134.543 23.1578C133.516 22.5963 132.714 21.8262 132.136 20.8476C131.575 19.869 131.294 18.746 131.294 17.4786C131.294 16.2112 131.567 15.0882 132.112 14.1096C132.674 13.131 133.436 12.369 134.398 11.8235C135.377 11.262 136.476 10.9813 137.695 10.9813C138.93 10.9813 140.021 11.254 140.968 11.7995C141.914 12.3449 142.652 13.115 143.182 14.1096C143.727 15.0882 144 16.2353 144 17.5508C144 17.6471 143.992 17.7594 143.976 17.8877C143.976 18.016 143.968 18.1364 143.952 18.2487H133.099V16.5882H142.749L141.81 17.1658C141.826 16.3476 141.658 15.6176 141.305 14.9759C140.952 14.3342 140.463 13.8369 139.837 13.484C139.227 13.115 138.513 12.9305 137.695 12.9305C136.893 12.9305 136.179 13.115 135.553 13.484C134.928 13.8369 134.438 14.3422 134.086 15C133.733 15.6417 133.556 16.3797 133.556 17.2139V17.5989C133.556 18.4492 133.749 19.2112 134.134 19.885C134.535 20.5428 135.088 21.0561 135.794 21.4251C136.5 21.7941 137.31 21.9786 138.225 21.9786C138.979 21.9786 139.66 21.8503 140.27 21.5936C140.896 21.3369 141.441 20.9519 141.906 20.4385L143.182 21.9305C142.604 22.6043 141.882 23.1176 141.016 23.4706C140.166 23.8235 139.211 24 138.152 24Z" fill="black"/>
    <rect width="30" height="30" fill="black"/>
    <path fill-rule="evenodd" clip-rule="evenodd" d="M6 6H8H10V24H8H6V22H8V8H6V6Z" fill="white"/>
    <path fill-rule="evenodd" clip-rule="evenodd" d="M18 22C20.2091 22 22 20.2091 22 18C22 15.7909 20.2091 14 18 14C15.7909 14 14 15.7909 14 18C14 20.2091 15.7909 22 18 22ZM18 24C21.3137 24 24 21.3137 24 18C24 14.6863 21.3137 12 18 12C14.6863 12 12 14.6863 12 18C12 21.3137 14.6863 24 18 24Z" fill="white"/>
</svg>
